HIERARCHY
ROOT Hips
{
	OFFSET	0.000000	0.000000	0.000000
	CHANNELS 6 Xposition Yposition Zposition Zrotation Xrotation Yrotation
	JOINT LeftUpLeg
	{
		OFFSET	12.811937	-7.635976	0.557276
		CHANNELS 3 Zrotation Xrotation Yrotation
		JOINT LeftLeg
		{
			OFFSET	-0.429270	-42.206159	-1.204951
			CHANNELS 3 Zrotation Xrotation Yrotation
			JOINT LeftFoot
			{
				OFFSET	-2.112259	-42.464481	-3.973220
				CHANNELS 3 Zrotation Xrotation Yrotation
				JOINT LeftFootHeel
				{
					OFFSET	0.387196	-5.329707	-3.419729
					CHANNELS 3 Zrotation Xrotation Yrotation
					End Site
					{
						OFFSET	0.327567	-0.000003	16.505428
					}
				}
			}
		}
	}
	JOINT RightUpLeg
	{
		OFFSET	-12.811937	-7.635976	0.557276
		CHANNELS 3 Zrotation Xrotation Yrotation
		JOINT RightLeg
		{
			OFFSET	0.429270	-42.206159	-1.204951
			CHANNELS 3 Zrotation Xrotation Yrotation
			JOINT RightFoot
			{
				OFFSET	2.112259	-42.464481	-3.973220
				CHANNELS 3 Zrotation Xrotation Yrotation
				JOINT RightFootHeel
				{
					OFFSET	-0.387198	-5.329707	-3.419729
					CHANNELS 3 Zrotation Xrotation Yrotation
					End Site
					{
						OFFSET	-0.327566	-0.000003	16.505428
					}
				}
			}
		}
	}
	JOINT Spine
	{
		OFFSET	0.000000	13.731315	-1.007646
		CHANNELS 3 Zrotation Xrotation Yrotation
		JOINT Spine1
		{
			OFFSET	0.000000	12.091746	-0.604589
			CHANNELS 3 Zrotation Xrotation Yrotation
			JOINT LeftShoulder
			{
				OFFSET	5.746115	20.990027	-0.833816
				CHANNELS 3 Zrotation Xrotation Yrotation
				JOINT LeftArm
				{
					OFFSET	10.881538	-1.359258	0.219250
					CHANNELS 3 Zrotation Xrotation Yrotation
					JOINT LeftForeArm
					{
						OFFSET	4.390314	-31.537147	0.202818
						CHANNELS 3 Zrotation Xrotation Yrotation
						JOINT LeftHand
						{
							OFFSET	3.168650	-24.865023	5.373370
							CHANNELS 3 Zrotation Xrotation Yrotation
							End Site
							{
								OFFSET	1.457528	-10.806075	2.170267
							}
						}
					}
				}
			}
			JOINT RightShoulder
			{
				OFFSET	-5.746115	20.990027	-0.833816
				CHANNELS 3 Zrotation Xrotation Yrotation
				JOINT RightArm
				{
					OFFSET	-10.881538	-1.359258	0.219250
					CHANNELS 3 Zrotation Xrotation Yrotation
					JOINT RightForeArm
					{
						OFFSET	-4.390314	-31.537147	0.202818
						CHANNELS 3 Zrotation Xrotation Yrotation
						JOINT RightHand
						{
							OFFSET	-3.168650	-24.865023	5.373370
							CHANNELS 3 Zrotation Xrotation Yrotation
							End Site
							{
								OFFSET	-1.457528	-10.806075	2.170267
							}
						}
					}
				}
			}
			JOINT Neck
			{
				OFFSET	0.000000	27.075639	0.680489
				CHANNELS 3 Zrotation Xrotation Yrotation
				JOINT Head
				{
					OFFSET	0.000000	12.391287	1.239129
					CHANNELS 3 Zrotation Xrotation Yrotation
					End Site
					{
						OFFSET	0.000000	13.818691	-0.105853
					}
				}
			}
		}
	}
}
MOTION
Frames:     20
Frame Time: 0.016667
0.000000	100.360694	0.000000	-0.264516	-0.325708	4.490392	-0.009273	0.986926	-3.659372	1.495800	-0.555008	1.276920	-1.368533	0.471161	-6.274395	0.	0.	0.	0.264241	1.039819	-2.996072	-0.333643	-0.064546	4.361925	-0.198285	-0.790093	-1.125521	0.	0.	0.	-0.900315	0.680279	0.137387	0.526344	1.075121	-1.651773	-0.383562	-2.133619	1.432155	1.083259	0.725771	-5.506852	-1.449477	-0.474632	1.994437	2.392566	1.550739	-4.823200	-3.072547	0.217385	5.191774	-0.110877	-2.532892	-0.299606	3.669512	-2.276947	-1.337358	2.033792	-1.224096	-4.657521	-1.122574	-0.888439	2.474522	2.814988	0.111001	-6.447051	
-0.000154	100.360404	0.000689	-0.263212	-0.325490	4.493329	-0.010539	0.986814	-3.662301	1.495800	-0.555008	1.276920	-1.368533	0.471161	-6.274395	0.	0.	0.	0.262978	1.039693	-2.999000	-0.333643	-0.064546	4.361925	-0.198285	-0.790093	-1.125521	0.	0.	0.	-0.901597	0.680213	0.134457	0.527171	1.080821	-1.651204	-0.378074	-2.131292	1.441682	1.077015	0.717699	-5.516621	-1.434219	-0.468016	1.962353	2.383981	1.526858	-4.719411	-3.068910	0.236091	5.209105	-0.114923	-2.531310	-0.296004	3.662148	-2.302616	-1.339161	2.027066	-1.212239	-4.618644	-1.135014	-0.874992	2.488193	2.819153	0.156664	-6.460554	
-0.001193	100.358437	0.005369	-0.254296	-0.324026	4.513395	-0.019197	0.986057	-3.682320	1.495800	-0.555008	1.276920	-1.368533	0.471161	-6.274395	0.	0.	0.	0.255338	1.039010	-3.016030	-0.334637	-0.064749	4.358916	-0.198285	-0.790093	-1.125521	0.	0.	0.	-0.910362	0.679768	0.114430	0.532085	1.114836	-1.647765	-0.375864	-2.157219	1.448256	1.070657	0.709479	-5.526569	-1.428156	-0.459872	1.965439	2.359987	1.504419	-4.688478	-3.068657	0.225870	5.221441	-0.122669	-2.540865	-0.289276	3.651846	-2.317723	-1.307981	1.963810	-1.195904	-4.532755	-1.128032	-0.883407	2.511334	2.802894	0.171336	-6.483090	
-0.002024	100.356848	0.009119	-0.247164	-0.322827	4.529449	-0.026125	0.985430	-3.698336	1.495800	-0.555008	1.276920	-1.368533	0.471161	-6.274395	0.	0.	0.	0.253876	1.042608	-3.010974	-0.338647	-0.071984	4.354284	-0.199531	-0.787174	-1.142072	0.	0.	0.	-0.917376	0.679390	0.098408	0.533715	1.126068	-1.646637	-0.367167	-2.155361	1.463575	1.060327	0.696012	-5.528934	-1.421002	-0.458230	1.935404	2.317346	1.492250	-4.665598	-3.067160	0.230568	5.231557	-0.130092	-2.553328	-0.282266	3.640525	-2.324369	-1.254087	1.886206	-1.184117	-4.447633	-1.119675	-0.877851	2.526441	2.789010	0.188375	-6.495803	
-0.002912	100.355142	0.013146	-0.239512	-0.321550	4.546666	-0.033559	0.984775	-3.715514	1.495800	-0.555008	1.276920	-1.368533	0.471161	-6.274395	0.	0.	0.	0.245168	1.056556	-3.010895	-0.335616	-0.088729	4.350360	-0.200533	-0.784811	-1.155456	0.	0.	0.	-0.925848	0.679142	0.084592	0.537817	1.147308	-1.647831	-0.362034	-2.166777	1.473890	1.051803	0.685799	-5.488878	-1.414674	-0.455918	1.869262	2.263210	1.485299	-4.678363	-3.066763	0.225480	5.240328	-0.137804	-2.565920	-0.274156	3.626387	-2.333494	-1.179515	1.812459	-1.168118	-4.368142	-1.106601	-0.890755	2.536937	2.770047	0.209928	-6.505834	
-0.003845	100.353369	0.017374	-0.231469	-0.320201	4.564758	-0.041374	0.984081	-3.733563	1.495800	-0.555008	1.276920	-1.368533	0.471161	-6.274395	0.	0.	0.	0.235424	1.072626	-3.010407	-0.331828	-0.107532	4.344820	-0.201525	-0.782514	-1.168500	0.	0.	0.	-0.937804	0.679327	0.080882	0.544925	1.165741	-1.660203	-0.355679	-2.174667	1.486077	1.042852	0.674591	-5.491106	-1.413118	-0.455580	1.854382	2.250845	1.483725	-4.681061	-3.065997	0.223329	5.249996	-0.146350	-2.578470	-0.262140	3.619938	-2.342035	-1.151513	1.781977	-1.187779	-4.227827	-1.090551	-0.900888	2.550421	2.749380	0.220630	-6.519345	
-0.004829	100.351499	0.021822	-0.222995	-0.318779	4.583813	-0.049608	0.983352	-3.752574	1.495800	-0.555008	1.276920	-1.368533	0.471161	-6.274395	0.	0.	0.	0.225140	1.090266	-3.008983	-0.327771	-0.128093	4.338385	-0.202586	-0.780034	-1.182555	0.	0.	0.	-0.950320	0.679517	0.076739	0.551944	1.182459	-1.673261	-0.352643	-2.177902	1.504798	1.037146	0.660406	-5.484292	-1.412862	-0.455225	1.827381	2.224628	1.478229	-4.689404	-3.064946	0.223421	5.260330	-0.157098	-2.588560	-0.234918	3.605037	-2.358746	-1.079991	1.778649	-1.235416	-4.172039	-1.076680	-0.899175	2.569240	2.732682	0.201162	-6.539151	
-0.005849	100.349532	0.026457	-0.214174	-0.317294	4.603651	-0.058180	0.982598	-3.772367	1.495800	-0.555008	1.276920	-1.368533	0.471161	-6.274395	0.	0.	0.	0.214598	1.109128	-3.006335	-0.323625	-0.150160	4.331447	-0.203757	-0.777283	-1.198115	0.	0.	0.	-0.962938	0.679656	0.070944	0.558941	1.200775	-1.685300	-0.340860	-2.178522	1.525984	1.022316	0.642351	-5.472565	-1.412550	-0.454778	1.793252	2.216688	1.469918	-4.667419	-3.063717	0.223977	5.271931	-0.170135	-2.597584	-0.195432	3.593703	-2.412917	-1.013583	1.791010	-1.261984	-4.173960	-1.064549	-0.897581	2.588818	2.717463	0.180159	-6.559859	
-0.006889	100.347526	0.031195	-0.205156	-0.315761	4.623937	-0.066945	0.981814	-3.792607	1.495800	-0.555008	1.276920	-1.368533	0.471161	-6.274395	0.	0.	0.	0.203485	1.128946	-3.003788	-0.319007	-0.173270	4.324632	-0.204972	-0.774451	-1.214141	0.	0.	0.	-0.974507	0.679585	0.060278	0.565596	1.226177	-1.692245	-0.330368	-2.186628	1.545650	1.008143	0.624744	-5.472506	-1.412339	-0.454484	1.771522	2.255274	1.475503	-4.645792	-3.062475	0.222282	5.285880	-0.184532	-2.611260	-0.159637	3.584395	-2.475014	-0.956594	1.844911	-1.283364	-4.211776	-1.053354	-0.899193	2.607619	2.702201	0.155503	-6.580459	
-0.007421	100.346519	0.033617	-0.200557	-0.314978	4.634285	-0.071415	0.981419	-3.802931	1.495800	-0.555008	1.276920	-1.368533	0.471161	-6.274395	0.	0.	0.	0.197591	1.139168	-3.002988	-0.316433	-0.185113	4.321423	-0.205577	-0.773051	-1.222079	0.	0.	0.	-0.979031	0.679354	0.049949	0.571019	1.263463	-1.688500	-0.327989	-2.215002	1.552940	1.001079	0.615779	-5.477731	-1.412290	-0.454409	1.765793	2.270011	1.474683	-4.626608	-3.062713	0.208372	5.297396	-0.198090	-2.624983	-0.127740	3.567069	-2.514473	-0.871172	1.919224	-1.325022	-4.298228	-1.052717	-0.910250	2.623387	2.708255	0.146393	-6.595313	
-0.009229	100.343040	0.041892	-0.184839	-0.312281	4.669661	-0.086695	0.980057	-3.838229	1.495800	-0.555008	1.276920	-1.368533	0.471161	-6.274395	0.	0.	0.	0.174725	1.164907	-3.020694	-0.305648	-0.215708	4.326883	-0.207327	-0.768979	-1.245098	0.	0.	0.	-0.994496	0.678551	0.014637	0.575442	1.293896	-1.685430	-0.310060	-2.217101	1.585387	0.979105	0.587348	-5.512199	-1.412290	-0.454409	1.765793	2.286603	1.471511	-4.568861	-3.063534	0.193442	5.304109	-0.204294	-2.638195	-0.128002	3.561096	-2.518151	-0.844179	1.979553	-1.379565	-4.299015	-1.062717	-0.899957	2.631503	2.730299	0.125877	-6.599843	
-0.010369	100.340821	0.047109	-0.174920	-0.310568	4.691978	-0.096340	0.979193	-3.860497	1.495800	-0.555008	1.276920	-1.368533	0.471161	-6.274395	0.	0.	0.	0.165152	1.163941	-3.042959	-0.304490	-0.218281	4.342225	-0.208493	-0.766270	-1.260424	0.	0.	0.	-1.004258	0.678040	-0.007640	0.578065	1.311983	-1.683632	-0.298957	-2.217740	1.605463	0.965330	0.570050	-5.517543	-1.412146	-0.454188	1.749916	2.277731	1.500258	-4.560838	-3.065614	0.175411	5.301283	-0.208280	-2.633533	-0.099252	3.549748	-2.527524	-0.796221	2.019729	-1.405720	-4.318698	-1.062967	-0.869411	2.638493	2.745052	0.095922	-6.601154	
-0.010369	100.340821	0.047109	-0.174920	-0.310568	4.691978	-0.096340	0.979193	-3.860497	1.495800	-0.555008	1.276920	-1.368533	0.471161	-6.274395	0.	0.	0.	0.162590	1.169329	-3.042362	-0.301053	-0.224836	4.349488	-0.209090	-0.764887	-1.268259	0.	0.	0.	-1.004258	0.678040	-0.007640	0.578944	1.318011	-1.683016	-0.293454	-2.215556	1.615141	0.958971	0.561827	-5.527515	-1.412146	-0.454188	1.749916	2.277731	1.500258	-4.560838	-3.066313	0.169402	5.300324	-0.208280	-2.633533	-0.099252	3.549748	-2.527524	-0.796221	2.014708	-1.400022	-4.289361	-1.063680	-0.875450	2.637744	2.745052	0.095922	-6.601154	
-0.011945	100.337769	0.054343	-0.161160	-0.308193	4.722909	-0.109722	0.978011	-3.891360	1.495800	-0.555008	1.276920	-1.368533	0.471161	-6.274395	0.	0.	0.	0.138034	1.191776	-3.070542	-0.287256	-0.250766	4.363717	-0.210372	-0.761922	-1.285038	0.	0.	0.	-1.017802	0.677347	-0.038516	0.582737	1.344142	-1.680390	-0.284492	-2.225788	1.632390	0.946191	0.546178	-5.520471	-1.405857	-0.453005	1.709630	2.236181	1.533994	-4.662620	-3.069326	0.143354	5.296209	-0.215286	-2.625385	-0.048872	3.535121	-2.541556	-0.741337	2.020948	-1.388430	-4.333731	-1.076536	-0.861363	2.648018	2.781343	0.082186	-6.604608	
-0.013412	100.334921	0.061103	-0.148298	-0.305950	4.751804	-0.122233	0.976896	-3.920192	1.495800	-0.555008	1.276920	-1.368533	0.471161	-6.274395	0.	0.	0.	0.106721	1.230448	-3.094856	-0.264213	-0.294066	4.386178	-0.212408	-0.757195	-1.311773	0.	0.	0.	-1.030464	0.676689	-0.067360	0.589410	1.390113	-1.675800	-0.281824	-2.261080	1.641023	0.937667	0.535484	-5.523418	-1.389368	-0.450741	1.661766	2.213464	1.582071	-4.847668	-3.073810	0.102243	5.292519	-0.223213	-2.622424	-0.005529	3.522412	-2.551221	-0.696384	2.033050	-1.380048	-4.374157	-1.098061	-0.968151	2.598154	2.825442	0.170455	-6.556140	
-0.017323	100.332905	0.072022	-0.140176	-0.304531	4.770030	-0.125372	0.984857	-3.939331	1.491656	-0.563951	1.278024	-1.368533	0.471161	-6.274395	0.	0.	0.	0.098899	1.229675	-3.113041	-0.264213	-0.294066	4.386178	-0.212408	-0.757195	-1.311773	0.	0.	0.	-1.038461	0.676277	-0.085554	0.593667	1.419445	-1.672851	-0.285349	-2.290509	1.637823	0.937667	0.535484	-5.523418	-1.386771	-0.450401	1.655795	2.239655	1.610400	-4.923030	-3.073836	0.092277	5.302302	-0.233728	-2.635790	0.013891	3.525620	-2.558766	-0.730161	2.033050	-1.380048	-4.374157	-1.114347	-0.997781	2.592276	2.851848	0.187798	-6.549743	
-0.022436	100.330861	0.085520	-0.132370	-0.303163	4.787525	-0.126224	0.996418	-3.958145	1.485791	-0.576586	1.279592	-1.368533	0.471161	-6.274395	0.	0.	0.	0.072490	1.268876	-3.125941	-0.241371	-0.336911	4.405783	-0.214239	-0.752968	-1.335674	0.	0.	0.	-1.046148	0.675881	-0.103020	0.595601	1.432789	-1.671526	-0.286950	-2.303896	1.636379	0.937667	0.535484	-5.523418	-1.386771	-0.450401	1.655795	2.249406	1.618190	-4.941419	-3.072017	0.098233	5.314595	-0.244356	-2.649007	0.034194	3.527527	-2.543602	-0.761948	2.080227	-1.391201	-4.331521	-1.123705	-0.999769	2.597049	2.872157	0.193531	-6.551427	
-0.027550	100.328904	0.098927	-0.124973	-0.301860	4.804088	-0.126587	1.008175	-3.976066	1.479855	-0.589390	1.281200	-1.368533	0.471161	-6.274395	0.	0.	0.	0.052540	1.295336	-3.139365	-0.226302	-0.365050	4.413187	-0.215024	-0.751138	-1.345991	0.	0.	0.	-1.053433	0.675505	-0.119554	0.595601	1.432789	-1.671526	-0.284531	-2.300698	1.640402	0.935195	0.532291	-5.527294	-1.385115	-0.441224	1.638774	2.233000	1.590882	-4.877550	-3.068753	0.116995	5.328618	-0.254419	-2.662220	0.051879	3.527376	-2.501388	-0.791617	2.091617	-1.400041	-4.326271	-1.151710	-1.020288	2.607261	2.912992	0.229896	-6.559052	
-0.030067	100.327896	0.105795	-0.121293	-0.297703	4.811469	-0.127134	1.010423	-3.984092	1.476954	-0.595655	1.281956	-1.368533	0.471161	-6.274395	0.	0.	0.	0.036030	1.318310	-3.143643	-0.212212	-0.391117	4.410292	-0.215024	-0.751138	-1.345991	0.	0.	0.	-1.057361	0.671808	-0.126986	0.595601	1.432789	-1.671526	-0.279846	-2.294510	1.648186	0.930409	0.526120	-5.534791	-1.382759	-0.438033	1.629107	2.224041	1.575158	-4.831277	-3.067112	0.126444	5.335675	-0.259117	-2.669297	0.058167	3.526995	-2.478487	-0.803929	2.094179	-1.395777	-4.323232	-1.162079	-1.030074	2.610581	2.926280	0.247062	-6.561741	
-0.035118	100.325851	0.120134	-0.114148	-0.280871	4.823701	-0.128731	1.006458	-3.997682	1.471116	-0.608241	1.283519	-1.368533	0.471161	-6.274395	0.	0.	0.	0.016203	1.326634	-3.153002	-0.199329	-0.414940	4.407642	-0.215024	-0.751138	-1.345991	0.	0.	0.	-1.065749	0.655861	-0.139480	0.599632	1.460607	-1.668748	-0.274549	-2.311006	1.659535	0.921579	0.514735	-5.548628	-1.376402	-0.437250	1.614500	2.188957	1.550666	-4.762670	-3.067083	0.117330	5.345217	-0.265586	-2.686480	0.050339	3.524213	-2.426868	-0.807795	2.099291	-1.383540	-4.319036	-1.171419	-1.063668	2.609074	2.931193	0.266362	-6.562912	
